<svg width="255" height="34" viewBox="0 0 255 34" fill="none" xmlns="http://www.w3.org/2000/svg">
<g clip-path="url(#clip0_1028_8023)">
<mask id="mask0_1028_8023" style="mask-type:luminance" maskUnits="userSpaceOnUse" x="0" y="0" width="255" height="34">
<path d="M255 0H0V34H255V0Z" fill="white"/>
</mask>
<g mask="url(#mask0_1028_8023)">
<mask id="mask1_1028_8023" style="mask-type:luminance" maskUnits="userSpaceOnUse" x="0" y="0" width="99" height="34">
<path d="M98.0465 0H0V34H98.0465V0Z" fill="white"/>
</mask>
<g mask="url(#mask1_1028_8023)">
<path fill-rule="evenodd" clip-rule="evenodd" d="M48.9121 27.0453C54.7145 22.2893 64.0436 18.9844 74.8302 18.9844C79.6939 18.9844 85.9333 20.062 90.937 22.0348C94.1837 23.3076 98.0419 26.0271 98.0419 26.0271C98.0419 26.0271 93.006 23.8018 87.7333 22.633C83.7975 21.7569 79.4614 21.8439 78.4322 21.8439C68.7005 21.8439 60.0755 27.4844 54.2042 32.9828C52.8306 31.0587 50.979 28.7678 48.9121 27.0453Z" fill="#5aee1b"/>
<path fill-rule="evenodd" clip-rule="evenodd" d="M7.10497 22.0504C12.1108 20.0776 18.0639 19 22.9297 19C30.7107 19 36.4593 20.0606 42.3672 23.2171C49.3021 27.1097 52.5294 33.0811 52.8524 34.0039H43.6827C40.2723 28.3719 32.487 22.0334 20.9102 21.8956C19.881 21.8956 14.2358 21.7662 10.3087 22.6423C5.03592 23.8174 0 26.0363 0 26.0363C0 26.0363 3.85606 23.3317 7.10497 22.0504Z" fill="#5aee1b"/>
<path d="M32.5174 17.1715C23.6684 16.9806 20.4238 17.3582 20.4238 17.3582C20.4238 17.3582 24.1658 12.1737 27.0228 9.67275C27.0228 9.67275 28.3836 8.39998 28.6957 7.61722C28.8381 7.32536 28.9117 7.00557 28.911 6.68174C28.9199 6.44273 28.8795 6.20443 28.7921 5.98127C28.7048 5.75812 28.5724 5.55476 28.4029 5.38351C28.2259 5.21482 28.0159 5.08343 27.7857 4.99736C27.5554 4.91129 27.3098 4.87234 27.0637 4.88288C26.7794 4.86564 26.4948 4.91268 26.2317 5.0204C25.9687 5.12813 25.7341 5.29368 25.5459 5.50442C25.1928 5.92868 25.1734 6.51415 25.1734 7.30327V7.48995H21.3195V7.386C21.3755 5.91595 22.0257 4.24862 23.0419 3.26222C24.0581 2.27582 25.5717 1.85156 27.0185 1.85156C28.741 1.85156 30.1124 2.28996 31.133 3.16676C32.1535 4.04356 32.6645 5.20885 32.6659 6.66264C32.6646 7.38033 32.4998 8.08859 32.1836 8.73514C31.7633 9.54418 31.2259 10.2888 30.5882 10.9455L27.8173 13.8729H30.7669C31.3565 13.8724 31.9441 13.8083 32.5195 13.682L32.5174 17.1715Z" fill="white"/>
<path d="M35.8521 17.359V5.79373C35.8521 3.09969 35.4043 2.35938 35.4043 2.35938H40.0914V17.359H35.8521Z" fill="white"/>
<path d="M40.8066 5.84905L41.164 4.55294C41.4094 4.76564 41.6907 4.93436 41.9951 5.05145C42.2848 5.16554 42.5938 5.22456 42.9058 5.22539C43.0774 5.23597 43.2487 5.20003 43.401 5.12145C43.4545 5.09192 43.4985 5.04828 43.5282 4.99545C43.5579 4.94261 43.572 4.88266 43.569 4.82235C43.569 4.61022 43.3407 4.45324 42.8886 4.34718C42.7379 4.31324 42.6195 4.28142 42.5291 4.25808C42.1135 4.16978 41.7271 3.98014 41.4052 3.70655C41.2876 3.59108 41.1955 3.45288 41.1347 3.30065C41.074 3.14841 41.0458 2.98544 41.0521 2.82197C41.0464 2.60852 41.0921 2.39676 41.1852 2.20397C41.2784 2.01117 41.4165 1.84279 41.5882 1.71254C42.0072 1.41103 42.519 1.26118 43.0372 1.28828C43.3588 1.28967 43.6793 1.32523 43.9931 1.39435C44.3343 1.46863 44.6674 1.57519 44.9878 1.71254L44.6283 2.88137C44.4134 2.73511 44.1795 2.61809 43.9328 2.53348C43.7053 2.45435 43.4658 2.41347 43.2245 2.41256C43.071 2.40268 42.9176 2.43422 42.781 2.50378C42.7336 2.52962 42.6945 2.56788 42.6679 2.61431C42.6413 2.66075 42.6282 2.71354 42.6303 2.76682C42.6303 2.93864 42.8563 3.08289 43.3063 3.19108L43.5388 3.25471C43.9967 3.35211 44.4246 3.55492 44.7876 3.84655C44.9065 3.96878 44.9989 4.1137 45.0588 4.27239C45.1188 4.43109 45.1452 4.6002 45.1364 4.76932C45.1428 4.99914 45.0938 5.22719 44.9935 5.43478C44.8932 5.64237 44.7445 5.8236 44.5594 5.9636C44.121 6.28498 43.5829 6.4462 43.0372 6.41968C42.634 6.42309 42.2322 6.37387 41.8422 6.27331C41.4776 6.18337 41.1285 6.04038 40.8066 5.84905Z" fill="white"/>
<path d="M46.9348 6.24931V2.64312H46.207V1.43399H46.9369V0H48.6356V1.43399H49.3655V2.63464H48.6356V6.24083L46.9348 6.24931Z" fill="white"/>
<path d="M63.3808 2.80474V6.95186C62.5196 6.29638 62.5196 6.29638 61.8737 5.95485C61.2374 5.65363 60.5408 5.49635 59.8348 5.49453C59.2872 5.47501 58.7419 5.57347 58.2369 5.78304C57.7319 5.99261 57.2794 5.30824 56.911 6.70791C56.1661 7.52036 55.8 8.29887 55.8 9.60134C55.8 10.8168 56.1725 12.1002 56.9325 12.8999C57.301 13.293 57.7507 13.6035 58.2514 13.8107C58.7521 14.0178 59.292 14.1167 59.8348 14.1006C60.4721 14.1039 61.1005 13.9531 61.6649 13.6615C62.2376 13.3688 62.8103 13.146 63.3873 12.5118V16.7904C62.7522 17.0962 62.0861 17.3351 61.4001 17.5031C60.7475 17.6603 60.0781 17.7401 59.4063 17.7407C58.6212 17.7482 57.8387 17.649 57.0811 17.4459C56.3823 17.2561 55.7203 16.9536 55.1218 16.5507C54.0123 15.8326 53.1086 14.8458 52.4973 13.6848C51.8812 12.4797 51.5696 11.1458 51.5887 9.7965C51.5746 8.71738 51.7689 7.64546 52.1614 6.63791C52.5541 5.6717 53.1399 4.79307 53.8838 4.05418C54.5782 3.33977 55.4164 2.77619 56.3448 2.39957C57.3162 2.02432 58.3523 1.83845 59.3956 1.85228C60.0674 1.85296 60.7367 1.93272 61.3893 2.08987C62.0768 2.25836 62.7444 2.49798 63.3808 2.80474Z" fill="white"/>
<path d="M67.7249 11.8138C68.2689 12.6269 68.985 13.3144 69.8241 13.829C70.371 14.1572 70.9967 14.3359 71.637 14.3466C72.1362 14.365 72.6257 14.207 73.0171 13.9011C73.1892 13.7662 73.3276 13.594 73.4213 13.398C73.515 13.2019 73.5616 12.9872 73.5575 12.7705C73.5698 12.5547 73.5342 12.3389 73.4531 12.1381C73.372 11.9374 73.2475 11.7564 73.0881 11.608C72.7781 11.3365 72.0726 11.0536 70.9717 10.7595C69.4689 10.3607 68.406 9.84025 67.7831 9.19821C67.1601 8.55617 66.8479 7.67725 66.8465 6.56145C66.8465 5.1119 67.3388 3.93105 68.3235 3.0189C69.3081 2.10675 70.5834 1.64996 72.1494 1.64855C72.9647 1.64443 73.7763 1.75733 74.5586 1.98371C75.3186 2.20857 76.0377 2.54797 77.0906 3.25648L75.7794 6.22629C74.9182 5.57505 74.438 5.27595 73.9385 5.0723C73.4687 4.87469 72.9638 4.77087 72.453 4.76684C72.0152 4.74669 71.5832 4.8714 71.2257 5.12109C71.0779 5.22509 70.9576 5.36268 70.8751 5.5222C70.7927 5.68172 70.7505 5.85848 70.7521 6.03749C70.7459 6.21041 70.7802 6.38242 70.8522 6.54022C70.9243 6.69801 71.0322 6.83737 71.1676 6.94752C71.4432 7.17662 71.9771 7.39299 72.7673 7.60088L72.9589 7.65179C74.6656 8.10857 75.7894 8.60849 76.3306 9.15154C76.6987 9.53624 76.9804 9.99305 77.1573 10.4922C77.3521 11.0496 77.4482 11.6358 77.4415 12.2253C77.4415 13.8304 76.9061 15.1216 75.8354 16.0988C74.7646 17.076 73.3364 17.5639 71.5508 17.5624C70.5499 17.5749 69.5563 17.3925 68.627 17.0258C67.7486 16.6651 66.8164 15.946 66.0176 15.1166C66.0154 15.1145 66.7862 13.8035 67.7249 11.8138Z" fill="white"/>
</g>
<mask id="mask2_1028_8023" style="mask-type:luminance" maskUnits="userSpaceOnUse" x="104" y="3" width="151" height="29">
<path d="M254.606 3.16406H104.373V31.6292H254.606V3.16406Z" fill="white"/>
</mask>
<g mask="url(#mask2_1028_8023)">
<path d="M119.326 15.7436H121.343L123.184 11.9453H121.167L119.326 15.7436Z" fill="white"/>
<path d="M128.439 11.9453L130.281 15.7436H132.298L130.456 11.9453H128.439Z" fill="white"/>
<path d="M162.512 13.6484H149.49V15.2433H162.512V13.6484Z" fill="white"/>
<path d="M162.008 4.67188H149.979V6.1054H162.008V4.67188Z" fill="white"/>
<path d="M172.178 3.23438H170.211V8.02256H164.516V9.63939H170.211V16.0334H172.178V9.63939H178.014V8.02256H172.178V3.23438Z" fill="white"/>
<path d="M192.959 8.26562H179.938V9.92647H192.959V8.26562Z" fill="white"/>
<path d="M244.97 3.45312H243.387V4.4797H241.592V5.79956H243.387V15.7462H244.97V5.79956H246.603V4.4797H244.97V3.45312Z" fill="white"/>
<path d="M242.91 6.50781H241.828V15.7469H242.91V6.50781Z" fill="white"/>
<path d="M246.518 6.50781H245.437V15.7469H246.518V6.50781Z" fill="white"/>
<path d="M254.244 4.16568H251.288V3.17578H249.959V4.16568H247.004V5.52588H254.244V4.16568Z" fill="white"/>
<path d="M214.76 14.0625H210.207V15.683H214.76V14.0625Z" fill="white"/>
<path d="M253.077 12.9452C252.716 12.648 252.375 12.3271 252.056 11.9846C252.016 11.9479 251.977 11.9039 251.938 11.8599C252.421 11.2037 252.98 10.3458 253.621 9.29353L253.453 9.20553C253.501 9.2386 253.551 9.26802 253.603 9.29353C253.828 9.41676 254.069 9.50334 254.32 9.55016L254.592 9.61982V8.15331C254.378 8.07461 254.193 7.92826 254.065 7.73535C253.955 7.44142 253.888 7.13265 253.865 6.81878C253.865 6.78945 253.818 6.61347 253.736 6.02686H252.135C252.174 6.2945 252.203 6.49248 252.221 6.62447C252.259 7.12418 252.359 7.61692 252.518 8.09099C252.55 8.18253 252.592 8.26991 252.643 8.35129H252.163C251.855 8.8829 251.561 9.35953 251.286 9.78848C251.229 9.85643 251.16 9.91102 251.081 9.94847C251.002 9.98592 250.916 10.0053 250.829 10.0053C250.742 10.0053 250.656 9.98592 250.577 9.94847C250.498 9.91102 250.428 9.85643 250.372 9.78848C250.093 9.35586 249.799 8.87435 249.491 8.34396H249C249.052 8.2618 249.095 8.17459 249.129 8.08365C249.286 7.60926 249.385 7.11659 249.423 6.61713C249.441 6.48514 249.469 6.28717 249.509 6.01953H247.904C247.818 6.60614 247.775 6.78211 247.771 6.81144C247.748 7.12531 247.681 7.43408 247.571 7.72802C247.444 7.92031 247.261 8.06661 247.048 8.14598V9.6125L247.32 9.54284C247.57 9.49499 247.812 9.40845 248.037 9.28619C248.09 9.25998 248.142 9.22933 248.191 9.19453C248.191 9.19453 248.191 9.19454 248.191 9.21287L248.019 9.30086C248.667 10.3678 249.222 11.2257 249.706 11.8673C249.663 11.9113 249.627 11.9553 249.588 11.9919C249.269 12.3354 248.928 12.6563 248.567 12.9525C248.082 13.3138 247.571 13.6362 247.037 13.9167V15.7499L247.309 15.6399C247.99 15.3696 248.642 15.0281 249.255 14.6207C249.805 14.2051 250.32 13.7427 250.795 13.2385C250.795 13.2385 250.795 13.2201 250.816 13.2091C250.827 13.218 250.836 13.2278 250.845 13.2385C251.318 13.7434 251.832 14.2059 252.382 14.6207C252.993 15.0274 253.644 15.3689 254.323 15.6399L254.599 15.7499V13.9167C254.068 13.6335 253.559 13.3087 253.077 12.9452Z" fill="white"/>
<path d="M234.513 10.8127C234.513 10.8127 236.615 9.22153 236.963 8.68991C236.984 8.65194 237.003 8.61277 237.02 8.57259C237.02 8.53226 237.02 8.52492 237.02 8.55425C237.046 8.48485 237.063 8.41206 237.07 8.33794C237.082 8.19454 237.06 8.05039 237.008 7.91681C236.956 7.78323 236.874 7.66385 236.769 7.56803C236.543 7.36557 236.249 7.26047 235.949 7.27472H228.24V8.64225H234.731L232.689 10.3691V11.359H225.775V12.7082H232.754V13.6577C232.769 13.7679 232.762 13.8802 232.733 13.9875C232.704 14.0948 232.654 14.1947 232.585 14.281C232.526 14.3652 232.448 14.4336 232.358 14.4802C232.267 14.5268 232.167 14.5503 232.066 14.5486H229.999V15.8392H233.581C233.742 15.8392 234.43 15.9052 234.43 14.666V12.7118H239.574V11.381H234.523L234.513 10.8127Z" fill="white"/>
<path d="M212.6 7.42564H212.199L213.911 3.48438H212.066L210.193 7.72628C210.11 8.00859 210.007 8.70151 210.984 8.75284H211.06H211.937L210.418 11.7189C210.279 11.9655 210.202 12.2442 210.196 12.5291C210.189 12.6262 210.203 12.7236 210.237 12.8148C210.27 12.9059 210.322 12.9886 210.39 13.0571C210.471 13.1235 210.573 13.155 210.676 13.1451H214.334V11.4586H212.417L214.749 6.61172H212.998L212.6 7.42564Z" fill="white"/>
<path d="M218.029 13.8378C217.955 13.8453 217.881 13.8319 217.814 13.7989C217.747 13.7659 217.69 13.7147 217.649 13.6508C217.615 13.5497 217.602 13.4423 217.61 13.3355V10.8938C217.61 10.8718 217.61 10.8571 217.61 10.8388V10.7215C217.608 10.7093 217.608 10.697 217.61 10.6848V10.5712C217.601 10.4646 217.613 10.3573 217.646 10.2559C217.686 10.1927 217.742 10.1421 217.809 10.1097C217.875 10.0774 217.949 10.0645 218.022 10.0725H222.679C223.639 10.0725 223.553 9.00564 223.553 9.00564V4.48877C223.553 4.48877 223.639 3.42188 222.679 3.42188H215.762V5.04237H221.389C221.458 5.05067 221.522 5.08156 221.572 5.13037C221.616 5.16918 221.652 5.21755 221.676 5.27205C221.7 5.32655 221.712 5.38583 221.712 5.44567V7.85441C221.728 8.02701 221.683 8.19978 221.586 8.34204C221.51 8.40648 221.413 8.43921 221.314 8.43371H216.632C215.679 8.43371 215.762 9.47859 215.762 9.47859V14.6737C215.762 14.6737 215.679 15.7113 216.632 15.7113H223.797V13.8158H218.226L218.029 13.8378Z" fill="white"/>
<path d="M132.263 10.8065V7.34917C132.263 6.78823 131.973 6.65625 131.389 6.65625L120.7 6.67458C120.019 6.67458 119.818 6.89455 119.818 7.31618V10.8212C119.818 11.3418 120.535 11.2611 120.535 11.2611H125.317V13.6075C125.317 14.1025 125.102 14.4068 124.712 14.4068H123.666V15.7487H126.173C126.173 15.7487 127.187 15.822 127.187 14.8431V11.2611H131.629C132.034 11.2611 132.263 11.1365 132.263 10.8065ZM130.544 9.33997C130.544 9.55628 130.493 9.67727 130.404 9.7066C130.242 9.73469 130.077 9.74454 129.913 9.73594H122.301C122.136 9.74688 121.971 9.73454 121.81 9.69927C121.735 9.66627 121.699 9.58195 121.699 9.43897V8.44173C121.694 8.39427 121.698 8.34619 121.713 8.30068C121.727 8.25517 121.75 8.21328 121.781 8.17776C121.846 8.14445 121.918 8.13046 121.989 8.13743H130.171C130.418 8.13743 130.529 8.24742 130.529 8.47106L130.544 9.33997Z" fill="white"/>
<path d="M126.935 3.44141H125.09V4.50097H119.541V5.91249H132.523V4.50097H126.935V3.44141Z" fill="white"/>
<path d="M113.61 3.52344H111.711V14.4307C111.711 15.8715 113.144 15.7615 113.144 15.7615H113.685H113.835H117.439V14.1887H114.441C114.328 14.2047 114.213 14.1937 114.105 14.1563C113.996 14.1189 113.898 14.0563 113.818 13.9734C113.738 13.8905 113.677 13.7896 113.642 13.6787C113.606 13.5678 113.596 13.4499 113.613 13.3344V8.36294H117.439V6.61779H113.61V3.52344Z" fill="white"/>
<path d="M207.018 3.44531H205.284V5.02548H201.455V3.44531H199.718V5.02548H197.69V3.44531H195.816V5.02548H194.975V6.38569H195.816V14.3892C195.816 14.3892 195.73 15.7567 197.013 15.7567H207.996V13.8686H198.267C197.819 13.8686 197.715 13.6486 197.704 13.4836V13.4066V6.38569H199.718V10.4443C199.718 10.4883 199.718 10.5249 199.718 10.5653V11.3498C199.718 11.3498 199.718 11.4048 199.718 11.4892V11.9291C199.718 11.9291 199.692 12.7357 200.402 12.7357H206.33C207.047 12.7357 207.011 11.9291 207.011 11.9291V11.5332C207.015 11.4721 207.015 11.4109 207.011 11.3498V10.5653C207.013 10.5482 207.013 10.531 207.011 10.5139V6.38569H207.996V5.02548H207.018V3.44531ZM205.284 10.4809C205.286 10.5017 205.286 10.5225 205.284 10.5433V10.9099C205.283 11.0204 205.24 11.1262 205.164 11.2044C205.087 11.2825 204.984 11.3269 204.876 11.3278H201.867C201.759 11.3269 201.656 11.2824 201.58 11.2041C201.505 11.1259 201.462 11.0201 201.462 10.9099V6.38569H205.291L205.284 10.4809Z" fill="white"/>
<path d="M226.951 8.84243V6.2357C226.952 6.19939 226.967 6.16488 226.993 6.13954C227.018 6.1142 227.052 6.10004 227.088 6.10005H237.268C237.303 6.10005 237.337 6.11434 237.362 6.13978C237.387 6.16522 237.401 6.19972 237.401 6.2357V6.76365C237.401 6.78931 237.401 6.81864 237.401 6.84798V8.87177H238.884V5.5721C238.884 5.22747 238.626 4.77285 237.924 4.77285H236.237L236.595 3.15234H235.047L234.689 4.77285H232.776L232.418 3.15234H230.885L231.225 4.77285H229.369L228.689 3.15234H227.156L227.883 4.78751H226.45C226.368 4.78751 226.171 4.82051 226.16 4.82051C225.978 4.85303 225.814 4.95133 225.698 5.09742C225.582 5.24352 225.52 5.42764 225.526 5.61609C225.526 5.70775 225.526 5.70776 225.526 6.30903V8.84243H226.959H226.951Z" fill="white"/>
<path d="M110.087 3.52344H108.235V6.61779H104.373V8.36294H108.235V13.2941C108.243 13.4203 108.225 13.5467 108.182 13.6654C108.14 13.7841 108.073 13.8924 107.988 13.9834C107.789 14.1322 107.544 14.2002 107.3 14.174H104.434V15.7469H108.733C108.733 15.7469 110.166 15.8569 110.166 14.416V3.52344H110.087Z" fill="white"/>
<path d="M147.361 6.03639V4.31323H142.048V3.25H140.118V4.31323H134.766V6.03639H140.118V7.31593H135.916C135.82 7.30083 135.722 7.30671 135.629 7.33322C135.535 7.35972 135.448 7.40623 135.374 7.46966C135.299 7.5331 135.239 7.61201 135.196 7.70117C135.154 7.79033 135.13 7.88771 135.127 7.98686V8.01618C135.125 8.04669 135.125 8.07733 135.127 8.10784V14.7952H136.815V9.32872C136.824 9.23472 136.868 9.14794 136.938 9.08647C137.008 9.02499 137.099 8.99358 137.191 8.99876H140.118V15.9134H142.038V8.99876H144.943C145.036 8.9926 145.127 9.02357 145.198 9.08514C145.269 9.14671 145.313 9.23405 145.323 9.32872V12.8557C145.317 13.0283 145.249 13.1927 145.133 13.3177C145.007 13.4454 144.84 13.5212 144.663 13.5303H143.736H143.7V14.8355H145.792C145.912 14.8359 146.032 14.8236 146.15 14.7988C146.196 14.7869 146.242 14.7722 146.286 14.7548C146.331 14.744 146.374 14.728 146.415 14.7072C146.472 14.6838 146.526 14.6543 146.576 14.6192L146.601 14.5972C146.716 14.511 146.811 14.4012 146.88 14.2748C146.95 14.1485 146.993 14.0084 147.006 13.8639V12.0931V8.12618C147.018 8.01709 147.005 7.90677 146.969 7.80336C146.933 7.69996 146.875 7.60609 146.799 7.52868C146.723 7.45128 146.631 7.39231 146.53 7.35612C146.429 7.31993 146.321 7.30745 146.215 7.31959H142.041V6.04006L147.361 6.03639Z" fill="white"/>
<path d="M104.373 20.8867H108.339C109.797 20.8867 110.757 21.5686 110.757 22.9582C110.769 23.341 110.663 23.718 110.455 24.0362C110.247 24.3545 109.946 24.598 109.596 24.7327V24.7547C110.592 24.9746 111.126 25.7739 111.126 26.9068C111.126 28.2156 110.237 29.2312 108.124 29.2312H104.373V20.8867ZM105.806 24.3807H108.134C108.29 24.3965 108.447 24.3781 108.594 24.3267C108.742 24.2753 108.877 24.192 108.991 24.0826C109.105 23.9732 109.194 23.8401 109.254 23.6923C109.313 23.5445 109.34 23.3854 109.334 23.2258C109.334 22.3826 108.912 22.0819 108.134 22.0819H105.806V24.3807ZM105.806 28.047H108.331C109.198 28.047 109.7 27.5704 109.7 26.7271C109.7 25.8839 109.198 25.4366 108.331 25.4366H105.802L105.806 28.047Z" fill="white"/>
<path d="M113.251 26.5504C113.251 27.5 113.756 28.3432 114.845 28.3432C115.161 28.3712 115.477 28.2859 115.738 28.102C116 27.9181 116.191 27.647 116.278 27.335H117.511C117.22 28.6585 116.128 29.3955 114.838 29.3955C112.986 29.3955 111.947 28.0756 111.947 26.2168C111.947 24.4973 113.043 23.0234 114.813 23.0234C116.676 23.0234 117.815 24.7393 117.596 26.5504H113.251ZM116.296 25.6778C116.246 24.8383 115.687 24.072 114.809 24.072C114.604 24.0715 114.4 24.1128 114.21 24.1934C114.02 24.2741 113.848 24.3926 113.703 24.5419C113.558 24.6913 113.443 24.8686 113.366 25.0636C113.288 25.2586 113.249 25.4673 113.251 25.6778H116.296Z" fill="white"/>
<path d="M118.623 20.8867H119.923V22.1479H118.623V20.8867ZM118.623 23.1855H119.923V29.2312H118.623V23.1855Z" fill="white"/>
<path d="M121.371 23.1894H122.675V29.7521C122.675 30.9546 122.206 31.6329 120.984 31.6329C120.789 31.6316 120.594 31.6157 120.4 31.5852V30.522C120.549 30.5455 120.698 30.5602 120.848 30.566C121.325 30.566 121.371 30.2727 121.371 29.6787V23.1894ZM121.371 20.8906H122.675V22.1518H121.371V20.8906Z" fill="white"/>
<path d="M124.125 20.8906H125.429V22.1518H124.129L124.125 20.8906ZM124.125 23.1894H125.429V29.2351H124.129L124.125 23.1894Z" fill="white"/>
<path d="M126.863 23.1848H128.096V24.072L128.117 24.0977C128.305 23.7693 128.574 23.4973 128.897 23.3088C129.221 23.1203 129.586 23.0219 129.958 23.0235C131.237 23.0235 132.05 23.7237 132.05 25.0803V29.2305H130.746V25.4249C130.721 24.4826 130.352 24.0684 129.593 24.0684C129.394 24.0676 129.197 24.1093 129.014 24.1909C128.831 24.2725 128.668 24.3921 128.533 24.5422C128.398 24.6923 128.295 24.8695 128.231 25.0625C128.167 25.2555 128.143 25.4601 128.16 25.6632V29.2268H126.863V23.1848Z" fill="white"/>
<path d="M138.856 28.9182C138.856 30.7256 137.821 31.6275 135.958 31.6275C134.765 31.6275 133.45 31.1583 133.321 29.7467H134.625C134.783 30.502 135.374 30.6303 136.033 30.6303C137.086 30.6303 137.556 30.084 137.556 29.0941V28.1666C137.377 28.4914 137.117 28.7613 136.802 28.9483C136.487 29.1353 136.129 29.2325 135.764 29.2298C133.895 29.2298 133.117 27.7633 133.117 26.0511C133.117 24.4269 134.113 23.0228 135.79 23.0228C136.144 23.0017 136.497 23.0843 136.807 23.2609C137.117 23.4375 137.372 23.7007 137.541 24.02V23.1877H138.842L138.856 28.9182ZM137.556 26.0768C137.556 25.0356 137.101 24.0713 135.969 24.0713C134.837 24.0713 134.418 25.1712 134.418 26.1831C134.418 27.195 134.883 28.1776 135.969 28.1776C137.126 28.1776 137.556 27.1033 137.556 26.0768Z" fill="white"/>
<path d="M150.779 29.2263H145.316C145.316 27.8808 146.004 26.8652 147.075 26.1283C148.146 25.3914 149.465 24.7168 149.49 23.4409C149.49 22.858 149.257 21.9744 148.143 21.9744C147.111 21.9744 146.803 22.8763 146.767 24.0239H145.467C145.467 22.2127 146.438 20.8672 148.222 20.8672C150.17 20.8672 150.79 22.3337 150.79 23.3786C150.79 24.6801 149.923 25.4831 148.999 26.1393C148.075 26.7956 147.104 27.2979 146.878 28.0201H150.772L150.779 29.2263Z" fill="white"/>
<path d="M151.83 22.4075C152.926 22.4075 153.979 22.0409 154.155 21.0547H155.23V29.2342H153.797V23.4561H151.83V22.4075Z" fill="white"/>
<path d="M157.596 23.7729C157.647 24.3119 158.048 24.5063 158.539 24.5063C158.897 24.5063 159.481 24.4366 159.459 23.9527C159.438 23.4687 158.768 23.4063 158.105 23.2487C157.442 23.091 156.776 22.8528 156.776 21.9949C156.776 21.0673 157.75 20.7812 158.503 20.7812C159.355 20.7812 160.122 21.1479 160.233 22.0828H159.284C159.201 21.6392 158.839 21.5182 158.442 21.5182C158.177 21.5182 157.686 21.5842 157.686 21.9508C157.686 22.4128 158.363 22.4751 159.033 22.6327C159.703 22.7904 160.373 23.0325 160.373 23.872C160.373 24.8766 159.38 25.2468 158.521 25.2468C157.478 25.2468 156.701 24.7702 156.687 23.7803L157.596 23.7729Z" fill="white"/>
<path d="M161.793 20.8933H162.484V19.6211H163.401V20.8933H164.225V21.5862H163.401V23.852C163.401 24.237 163.434 24.4349 163.838 24.4349C163.968 24.4405 164.098 24.4294 164.225 24.4019V25.1352C164.025 25.1352 163.831 25.1792 163.634 25.1792C162.678 25.1792 162.506 24.8126 162.488 24.1013V21.5936H161.797L161.793 20.8933Z" fill="white"/>
<path d="M176.746 23.5545C176.502 22.5903 175.897 21.89 174.711 21.89C172.963 21.89 172.228 23.4629 172.228 25.0651C172.228 26.6672 172.963 28.2511 174.711 28.2511C175.976 28.2511 176.674 27.2758 176.789 26.0513H178.186C178.18 26.5086 178.085 26.9601 177.907 27.3793C177.728 27.7985 177.469 28.1768 177.145 28.4918C176.821 28.8069 176.439 29.0524 176.021 29.2138C175.603 29.3752 175.157 29.4493 174.711 29.4316C172.264 29.4316 170.803 27.4408 170.803 25.0541C170.803 22.6673 172.264 20.6875 174.711 20.6875C176.549 20.6875 177.999 21.7397 178.171 23.5435L176.746 23.5545Z" fill="white"/>
<path d="M180.314 26.5543C180.314 27.5039 180.819 28.3471 181.908 28.3471C182.224 28.3765 182.541 28.2918 182.802 28.1077C183.064 27.9236 183.255 27.6516 183.341 27.3389H184.573C184.294 28.6624 183.194 29.3994 181.905 29.3994C180.053 29.3994 179.014 28.0795 179.014 26.2207C179.014 24.5012 180.11 23.0273 181.879 23.0273C183.742 23.0273 184.881 24.7432 184.666 26.5543H180.314ZM183.359 25.6817C183.309 24.8422 182.754 24.0759 181.872 24.0759C181.667 24.0759 181.463 24.1175 181.273 24.1983C181.084 24.2792 180.911 24.3976 180.767 24.5469C180.622 24.6962 180.507 24.8733 180.43 25.0681C180.352 25.2628 180.313 25.4714 180.314 25.6817H183.359Z" fill="white"/>
<path d="M185.65 23.1848H186.886V24.072L186.908 24.0977C187.096 23.7693 187.365 23.4973 187.688 23.3088C188.011 23.1203 188.377 23.0219 188.749 23.0235C190.028 23.0235 190.837 23.7237 190.837 25.0803V29.2305H189.551V25.4249C189.53 24.4826 189.165 24.0684 188.398 24.0684C187.531 24.0684 186.965 24.776 186.965 25.6632V29.2268H185.661L185.65 23.1848Z" fill="white"/>
<path d="M191.615 23.1862H192.597V21.375H193.901V23.1862H195.072V24.1834H193.901V27.4061C193.901 27.956 193.944 28.242 194.528 28.242C194.711 28.2504 194.894 28.2331 195.072 28.1906V29.2245C194.789 29.2465 194.517 29.2905 194.23 29.2905C192.869 29.2905 192.622 28.7589 192.597 27.747V24.1834H191.615V23.1862Z" fill="white"/>
<path d="M201.197 29.2296H199.915V28.39H199.897C199.725 28.691 199.48 28.9415 199.185 29.1174C198.891 29.2934 198.558 29.3888 198.217 29.3945C196.673 29.3945 196.014 28.5953 196.014 27.0224V23.1875H197.318V26.8905C197.318 27.9537 197.737 28.357 198.442 28.357C199.517 28.357 199.897 27.6457 199.897 26.7071V23.1875H201.197V29.2296Z" fill="white"/>
<path d="M202.57 23.1852H203.792V24.3584H203.817C203.938 23.9833 204.168 23.6548 204.475 23.4164C204.783 23.1781 205.154 23.0412 205.54 23.0239C205.704 23.0208 205.869 23.0331 206.031 23.0606V24.3438C205.848 24.3438 205.673 24.2851 205.472 24.2851C204.58 24.2851 203.874 25.0184 203.874 26.3529V29.2309H202.57V23.1852Z" fill="white"/>
<path d="M207.281 23.1875H208.714L210.258 27.7044H210.28L211.763 23.1875H213.12L210.824 29.5632C210.401 30.6631 210.108 31.631 208.736 31.631C208.434 31.6296 208.132 31.6075 207.833 31.565V30.4394C208.035 30.4825 208.24 30.5095 208.445 30.5201C209.054 30.5201 209.205 30.1901 209.363 29.6805L209.509 29.2076L207.281 23.1875Z" fill="white"/>
<path d="M220.536 26.4473C220.536 27.7341 221.46 28.2401 222.599 28.2401C223.86 28.2401 224.326 27.6095 224.326 26.9752C224.344 26.7509 224.287 26.527 224.164 26.34C224.042 26.153 223.862 26.0137 223.652 25.945C223.083 25.725 222.341 25.5783 221.22 25.2557C219.823 24.8708 219.429 24.0018 219.429 23.1403C219.429 21.4684 220.937 20.6875 222.413 20.6875C224.111 20.6875 225.537 21.6077 225.537 23.3529H224.104C224.032 22.275 223.33 21.8864 222.348 21.8864C221.682 21.8864 220.855 22.1284 220.855 22.9863C220.855 23.5729 221.238 23.8992 221.825 24.0642C221.947 24.0935 223.753 24.5774 224.175 24.7094C224.631 24.8358 225.033 25.1122 225.32 25.4959C225.607 25.8795 225.762 26.3491 225.762 26.8322C225.762 28.7094 224.143 29.4536 222.513 29.4536C220.658 29.4536 219.146 28.537 219.117 26.4693L220.536 26.4473Z" fill="white"/>
<path d="M230.801 25.2086C230.764 24.8775 230.603 24.574 230.352 24.3621C230.101 24.1501 229.779 24.0461 229.454 24.072C228.777 24.072 227.832 24.4386 227.832 26.2718C227.832 27.28 228.265 28.3432 229.397 28.3432C230.153 28.3432 230.676 27.8263 230.801 26.961H232.105C231.865 28.5339 230.912 29.3955 229.397 29.3955C227.545 29.3955 226.531 28.0499 226.531 26.2718C226.531 24.4936 227.502 23.0234 229.444 23.0234C230.816 23.0234 231.98 23.7237 232.105 25.2232L230.801 25.2086Z" fill="white"/>
<path d="M233.162 20.8906H234.469V23.9886H234.491C234.683 23.6879 234.946 23.4419 235.256 23.2739C235.566 23.1058 235.913 23.0213 236.264 23.0281C237.543 23.0281 238.356 23.7283 238.356 25.0849V29.2351H237.049V25.4332C237.027 24.4909 236.662 24.0766 235.899 24.0766C235.699 24.0759 235.502 24.1176 235.32 24.1992C235.137 24.2808 234.973 24.4004 234.838 24.5505C234.704 24.7006 234.601 24.8778 234.537 25.0708C234.472 25.2638 234.448 25.4684 234.466 25.6715V29.2351H233.158L233.162 20.8906Z" fill="white"/>
<path d="M239.455 26.2058C239.455 24.3726 240.53 23.0234 242.428 23.0234C244.327 23.0234 245.412 24.358 245.412 26.2058C245.412 28.0536 244.338 29.3955 242.428 29.3955C240.519 29.3955 239.455 28.0646 239.455 26.2058ZM244.112 26.2058C244.112 25.1646 243.593 24.072 242.428 24.072C241.264 24.072 240.748 25.1719 240.748 26.2058C240.748 27.2397 241.268 28.3432 242.428 28.3432C243.589 28.3432 244.112 27.258 244.112 26.2058Z" fill="white"/>
<path d="M246.223 26.2097C246.223 24.3765 247.297 23.0273 249.203 23.0273C251.109 23.0273 252.184 24.3619 252.184 26.2097C252.184 28.0575 251.109 29.3994 249.203 29.3994C247.297 29.3994 246.223 28.0685 246.223 26.2097ZM250.88 26.2097C250.88 25.1685 250.364 24.0759 249.2 24.0759C248.035 24.0759 247.519 25.1758 247.519 26.2097C247.519 27.2436 248.035 28.3471 249.2 28.3471C250.364 28.3471 250.883 27.2619 250.883 26.2097H250.88Z" fill="white"/>
<path d="M253.316 20.8867H254.62V29.2312H253.316V20.8867Z" fill="white"/>
</g>
</g>
</g>
<defs>
<clipPath id="clip0_1028_8023">
<rect width="255" height="34" fill="white"/>
</clipPath>
</defs>
</svg>